<?xml version="1.0" standalone="no"?>
<!DOCTYPE svg PUBLIC "-//W3C//DTD SVG 20010904//EN"
 "http://www.w3.org/TR/2001/REC-SVG-20010904/DTD/svg10.dtd">
<svg version="1.0" xmlns="http://www.w3.org/2000/svg"
 width="1024.000000pt" height="1024.000000pt" viewBox="0 0 1024.000000 1024.000000"
 preserveAspectRatio="xMidYMid meet">

<g transform="translate(0.000000,1024.000000) scale(0.100000,-0.100000)"
fill="#000000" stroke="none">
<path d="M2685 7286 c-278 -66 -448 -220 -534 -485 -36 -109 -38 -309 -5 -395
5 -13 -35 -15 -283 -18 l-289 -3 -78 -38 c-90 -45 -133 -95 -165 -195 -21 -61
-21 -81 -21 -885 0 -881 0 -868 51 -974 35 -71 122 -154 203 -192 125 -60 129
-60 1145 -61 808 0 931 2 984 16 211 54 297 191 297 470 l0 104 46 0 c60 0 98
36 108 100 12 86 10 592 -3 640 -19 67 -45 90 -102 90 l-48 0 -4 303 c-2 166
-6 313 -10 326 -34 125 -91 205 -178 251 -48 25 -148 50 -202 50 l-45 0 5 138
c7 162 -9 254 -60 365 -87 184 -260 328 -462 383 -82 22 -273 27 -350 10z
m315 -171 c175 -53 318 -190 374 -358 25 -73 31 -262 12 -338 -53 -204 -223
-373 -429 -425 -202 -52 -454 74 -584 292 -54 92 -73 149 -85 267 -13 118 -3
179 44 276 44 89 169 216 253 255 113 54 294 67 415 31z m-749 -957 c24 -34
66 -86 94 -115 l51 -53 -408 0 c-449 0 -452 0 -483 60 -37 71 1 129 105 161
14 4 154 8 312 8 l287 1 42 -62z m1453 38 c61 -32 96 -82 103 -150 l6 -56
-260 0 -259 0 62 64 c35 35 77 87 95 116 l32 51 90 -2 c68 -2 101 -8 131 -23z
m-1026 -394 l1132 -2 0 -171 0 -171 -289 7 c-254 7 -294 6 -338 -9 -59 -20
-104 -60 -134 -123 -41 -85 -51 -460 -14 -563 9 -25 30 -60 48 -78 62 -65 58
-64 409 -63 l318 2 0 -133 c0 -146 -12 -190 -64 -238 l-28 -25 -1021 0 -1022
0 -45 23 c-58 31 -86 57 -118 112 l-27 45 -3 713 -3 713 33 -18 c31 -17 99
-18 1166 -21z m1312 -757 l0 -255 -383 0 c-315 0 -387 3 -403 14 -18 13 -19
29 -21 218 -1 154 2 211 12 235 l14 33 388 3 c213 1 389 3 391 5 1 1 2 -113 2
-253z"/>
<path d="M2816 6978 c-3 -13 -6 -33 -6 -45 0 -14 -6 -23 -15 -23 -29 0 -92
-38 -125 -76 -46 -53 -63 -99 -55 -150 13 -92 74 -141 208 -168 93 -18 117
-35 117 -82 0 -48 -34 -68 -100 -60 -53 6 -172 55 -184 75 -15 24 -37 8 -66
-49 -16 -33 -30 -66 -30 -74 0 -19 123 -91 193 -113 l59 -18 -6 -41 -5 -42 39
-4 c51 -5 60 -1 60 25 0 44 12 64 44 75 105 38 170 225 116 332 -25 48 -83 84
-165 100 -97 20 -135 38 -135 66 0 13 10 34 21 45 31 31 113 23 202 -19 l68
-32 25 56 c13 30 24 56 24 58 0 9 -75 50 -129 72 -56 23 -56 23 -56 66 l0 43
-46 3 c-41 3 -47 0 -53 -20z"/>
<path d="M3293 5268 c-22 -29 -24 -38 -8 -38 9 0 13 5 10 10 -4 6 -1 17 5 25
7 8 10 15 7 15 -2 0 -9 -6 -14 -12z"/>
<path d="M3266 5207 c3 -10 9 -15 12 -12 3 3 0 11 -7 18 -10 9 -11 8 -5 -6z"/>
<path d="M3394 5141 c-38 -23 -58 -70 -50 -114 21 -109 191 -102 212 8 7 42
-17 90 -56 110 -39 20 -68 19 -106 -4z"/>
<path d="M3321 5134 c0 -11 3 -14 6 -6 3 7 2 16 -1 19 -3 4 -6 -2 -5 -13z"/>
<path d="M3218 4993 c7 -3 16 -2 19 1 4 3 -2 6 -13 5 -11 0 -14 -3 -6 -6z"/>
<path d="M3289 4863 c-13 -16 -12 -17 4 -4 16 13 21 21 13 21 -2 0 -10 -8 -17
-17z"/>
<path d="M3236 4863 c-4 -5 -13 -8 -19 -8 -7 0 -12 -8 -13 -18 -1 -12 -1 -13
3 -2 2 8 8 13 13 10 4 -3 13 2 20 10 13 15 9 21 -4 8z"/>
<path d="M5670 5756 c0 -7 74 -183 201 -476 l124 -285 3 -242 3 -243 119 0
120 0 0 246 0 245 151 362 c83 199 153 368 156 375 4 10 -21 12 -117 10 l-123
-3 -10 -30 c-5 -16 -44 -118 -87 -225 -42 -107 -80 -204 -85 -215 -9 -24 3
-49 -120 263 l-87 222 -124 0 c-68 0 -124 -2 -124 -4z"/>
<path d="M7875 5747 c-5 -12 -239 -938 -280 -1107 -13 -52 -27 -103 -30 -112
-7 -17 3 -18 117 -18 l124 0 29 130 29 130 148 0 c110 0 150 -3 153 -12 2 -7
7 -31 10 -53 3 -22 13 -75 22 -117 l16 -78 124 0 125 0 -7 33 c-3 17 -19 88
-35 157 -16 69 -43 186 -60 260 -43 197 -88 394 -110 485 -32 135 -58 248 -65
282 l-6 32 -150 0 c-107 0 -151 -4 -154 -12z m235 -749 c0 -16 -11 -18 -99
-18 l-99 0 10 38 c21 84 80 360 85 397 5 33 14 4 54 -180 26 -121 48 -228 49
-237z"/>
<path d="M4568 5215 c-1 -294 -3 -572 -3 -617 l0 -83 108 -3 107 -3 1 403 1
403 40 -125 c22 -69 66 -209 99 -312 l60 -188 79 0 c72 0 81 2 94 23 16 24 82
238 145 462 l38 140 7 -230 c3 -126 8 -306 11 -400 l4 -170 112 -3 112 -3 -8
391 c-4 216 -8 399 -10 408 -2 9 -4 113 -4 230 l-1 212 -140 0 -139 0 -26 -82
c-46 -153 -142 -492 -160 -567 -11 -45 -21 -68 -25 -60 -4 8 -35 111 -69 229
-34 118 -78 274 -99 345 l-38 130 -147 3 -147 3 -2 -536z"/>
<path d="M6667 5488 c1 -145 3 -424 3 -620 l0 -358 112 0 111 0 -7 353 c-4
193 -9 370 -12 392 -4 36 -3 38 7 15 7 -14 66 -140 132 -280 66 -140 140 -300
165 -355 24 -55 49 -106 55 -112 6 -9 43 -13 118 -13 l109 0 0 393 c0 217 -3
496 -7 621 l-6 227 -116 -3 -116 -3 1 -35 c1 -19 9 -165 18 -323 9 -158 16
-311 16 -340 l-1 -52 -23 55 c-12 30 -62 138 -109 240 -47 102 -113 246 -145
320 l-59 135 -124 3 -124 3 2 -263z"/>
<path d="M8585 5716 c-4 -19 -1 -99 6 -178 9 -102 10 -266 6 -585 l-6 -443
202 0 c145 0 220 5 266 15 225 53 326 235 266 477 -20 79 -67 141 -122 159
l-36 12 29 15 c79 40 111 105 113 231 3 162 -47 259 -158 303 -52 21 -76 23
-308 26 l-252 4 -6 -36z m434 -191 c33 -17 50 -55 50 -110 -2 -97 -51 -137
-173 -139 l-71 -1 -2 133 -2 132 85 0 c55 0 95 -5 113 -15z m-6 -489 c48 -20
68 -57 74 -140 5 -68 4 -73 -23 -105 -38 -46 -80 -61 -169 -61 l-75 0 0 160 0
160 80 0 c46 0 95 -6 113 -14z"/>
</g>
</svg>
